<?xml version="1.0" encoding="UTF-8"?>
<svg id="Capa_1" data-name="Capa 1" xmlns="http://www.w3.org/2000/svg" viewBox="0 0 209.92 188.08">
  <path d="M124.41,93.83c2.38,1.04,3.02,3.52.33,4.4-3.32,1.09-8.64.11-11.79-1.34-2.22-1.02-2.91-2.57-5.75-2.32-4.92.42-17.04,8.29-20.82,11.78-8.88,8.2-15.21,24.63-6.76,35.17,13.51,16.85,42.45-.85,35.72-20.88-4.53-13.49-25.59-9.13-23.45,3.77.25,1.5,2.33,2.51,3.71,2.46.79-.03.53-1.34,1.76-.99.05,3.6-5.34,1.85-6.52-.42-2.87-5.58,3.82-12.57,8.85-14.19,12.5-4.02,21.67,6.67,19.53,18.88-3.76,21.5-37.92,27.7-46.98,7.14-7.09-16.09,6.92-32.72,20.39-39.86,4.19-2.22,9.11-4.35,13.77-5.11-.59-1.54-1.74-2.71-2.27-4.34-3.02-9.21,4.59-16.79,12.52-19.78,2.05-.77,4.23-.99,6.24-1.82.84-2.43,1.39-4.97,2.31-7.37,3.7-9.73,11.46-18.51,18.47-26.06,5.33-5.73,11.14-11.41,17.11-16.45.52.32-.11.71-.32.97-10.72,12.79-18.24,22.86-25.29,38.28-.82,1.8-4.1,8.92-4.19,10.35-.07.98,1.51.68,2.23.89,15.12,4.27,5.75,22.7-7.43,18.08-5.45-1.91-3.87-12.16-3.23-16.61-9.92,2.1-17.81,12.88-13.68,22.93.04.1,5.67-1.07,6.21-1.16,2.13-.34,4.26-.63,6.41-.85,4.28-.45,8.59-.66,12.9-.59s8.59.42,12.84,1.09c2.12.34,4.23.75,6.32,1.25,1.05.25,2.09.52,3.13.82.29.08.72.3,1.05.31.12,0,.24-.06.34-.13,2.45-1.76,5.08-3.39,7.96-4.37,1.27-.43,2.84-.78,4.14-1.03,1.39-.27,5.28-1.05,12.49.96l.27.7c.07,0-6.22-1.86-12.65-.22-3.54.9-7,2.41-9.83,4.76,7.05,2.99,16.16,8.12,16.96,16.67,1.7,18.36-18.66,27.04-33.88,28.55,3.11,9.64,2.7,19.88,4.25,29.79,1.94,12.41,5.59,17.46,19.14,16.34,17.98-1.48,44.31-24.23,36.46-43.87-8.08-20.22-41.6-11.29-40.16,9.83.93,13.65,20.22,18.12,23.97,6.23,1.15-3.65-.18-7.68-4.45-5.75l-.48-.79c1.33-2.44,5.72,0,6.47,1.9,1.75,4.44-2.06,9.33-5.73,11.42-12,6.79-25.02-5.07-22.92-17.76,3.59-21.73,40.09-25.11,48.37-4.02,8.54,21.75-21.5,44.75-40.88,46.04-13.64.91-24.96-4.29-27.22-18.59-1.56-9.91-.3-20.22-1.98-30.12l-6.56-.27-.51.46c-6.94,16.65-15.31,33.75-31.76,42.78-7.09,3.9-23.78,9.24-30.98,4.41-4.52-3.03-3.54-11.31,1.64-13.09,1.91-.66,5.1-1.01,4.59,1.85-4.22-1.49-7.47,1.67-6.7,5.9.69,3.78,6.88,5.13,10.09,5.1,26.98-.27,39.35-38.32,49.68-57.79,6.7-12.62,15.27-25.65,27.21-33.78-.69-.55-5.5-1.82-6-1.93-10.33-2.33-22.96-2.33-33.35-.32-.42.08-.68.13-1.56.54,1.62.11,8.98.63,10.26,1.19ZM130.49,68.15c-1.64,2.97-3.78,11-2.54,14.08,1.33,3.31,7.32,1.12,8.93-1.23,3.84-5.58.14-12.54-6.39-12.85ZM115.05,94.02c-.51.05-3.17.24-3.15.71,2.33,2.07,6.09,3.04,9.19,2.74.83-.08,2.42-.31,2.69-1.19.42-1.61-.62-1.87-1.93-2.15-1.96-.41-4.78-.3-6.79-.11ZM142.28,135.81c6.46-.61,13.53-3.55,18.76-7.41,11.56-8.54,12.87-24.11-.46-31.7-.81-.46-2.59-1.7-3.37-1.18-1.51,1.01-2.52,2.37-3.63,3.8-1.21,1.56-2.4,3.15-3.54,4.76-4.27,6-8.16,12.32-11.52,18.87-1.07,2.1-2.09,4.22-3.05,6.37l.1.44c2.86,1.2,5.29,3.26,6.7,6.05ZM137.38,136.52c.16-1.16-1.97-4.5-3.06-4.52l-1.78,4.52h4.84Z"/>
  <path d="M87.69,76.5l7.25-4.85c21.24-17.78,35.77-42.05,58.67-58.14C161.59,7.9,177.07,0,186.6,5.51c4.42,2.55,3.59,9.04,0,11.63-.36.26-2.07,1.35-2.1.17,3.59-2.42,4.96-8.97-.51-9.83-15.28-2.39-36.83,14.94-47.42,24.82-9.7,9.05-18.11,19.07-27.25,28.57-8.01,8.33-21.99,22.81-34.69,20.47-.52-.1-.56.22-.49-.63,6.06-2.02,8.57-4.84,11.67-10.11,6.07-10.34,10.74-22.08,16.67-32.7,3.04-5.45,6.26-10.8,10.03-15.79.16-.61-.07-.37-.38-.52-3.12-1.51-3.55-.66-6.15,1.1-26.95,18.18-42.81,67.11-81.71,65.14-20.6-1.05-31.3-20.76-19.13-37.88,2.82-3.96,6.32-6.23,10.54-8.47-3.36-14.79,4.86-31.12,18.78-37.07C40.03,2.01,48.25.25,54.29.03c19.78-.72,36.82,11,53.97,18.98,1.09.18,4.78-2.1,6.28-2.62,5.33-1.84,17.56-2.44,16.69,6.02-.72,6.97-12.89,1.73-16.61.2-.72.01-1.76,1.66-2.22,2.28-5.95,8.07-8.08,19.08-11.34,28.35-2.98,8.48-7,16.8-13.38,23.24ZM16.37,43.27C-.28,48.93-3.29,74.87,12.72,83.22c15.55,8.11,32.2.27,43.99-10.42,13.61-12.34,25.14-28.73,38.06-41.96,3.95-4.05,8.27-7.72,12.91-10.96C87.06,10.23,62.43-1.39,39.44,7.12c-12.38,4.58-22.81,16.32-21.79,30.19.38,5.16,1.42,2.91,5.32,2.72,10.77-.54,18.57,6.25,18.57,17.12,10.82.23,25.52-7.9,26.74-19.56,1.38-13.13-10.78-23.52-23.41-18.25-5.59,2.33-10.3,8.67-8,14.89.97,2.62,4.45,4.08,4.66,5.02.29,1.27-2.53-.73-2.87-1-4.73-3.78-4.53-10.92-.99-15.45,9.3-11.92,29.42-6.64,32.43,7.89,3.39,16.36-13.84,28.24-28.59,27.9-1.77,8.47-10.05,14.42-18.52,14.71-1.24.04-2.76.1-3.72-.82-.01-.76,3.07-.42,3.7-.49,8.48-.99,13.66-5.11,15.66-13.55-9.61-.71-19.53-5.26-22.27-15.17ZM118.02,18.42c-.56,1.09-1.94,1.76-2.58,2.74-.2.3-.54.29,0,.65.73.49,8.52,2.71,9.54,2.75,3.51.15,4.36-3.17,2.4-5.66-3.4-4.34-13.05-1.92-16.78,1.12,3.63,1.95,2.99.22,5.26-1.03.7-.38,1.33-.68,2.16-.58ZM20.82,42.06c-.57.09-1.24.23-1.73.54-.66.89,1.97,4.95,2.64,5.8,2.21,2.81,5.76,5.41,9.08,6.73,1.04.41,7.59,2.43,8,1.71.78-4.91-1.9-11.33-6.5-13.53-2.93-1.4-8.29-1.72-11.49-1.24Z"/>
</svg>